<svg width="24" height="24" viewBox="0 0 24 24" fill="none" xmlns="http://www.w3.org/2000/svg">
<g id="Facebook Icon">
<path id="Vector" d="M19.68 1.92001H4.32004C2.99524 1.92001 1.92004 2.99521 1.92004 4.32001V19.68C1.92004 21.0048 2.99524 22.08 4.32004 22.08H19.68C21.0048 22.08 22.08 21.0048 22.08 19.68V4.32001C22.08 2.99521 21.0048 1.92001 19.68 1.92001ZM17.76 9.12001H16.8C15.7728 9.12001 15.36 9.36001 15.36 10.08V11.52H17.76L17.28 13.92H15.36V21.12H12.96V13.92H11.04V11.52H12.96V10.08C12.96 8.16001 13.92 6.72001 15.84 6.72001C17.232 6.72001 17.76 7.20001 17.76 7.20001V9.12001Z" fill="#6972B5"/>
</g>
</svg>
