<svg width="24" height="24" viewBox="0 0 24 24" fill="none" xmlns="http://www.w3.org/2000/svg">
<g id="Instagram Icon">
<path id="Vector" d="M7.67994 1.44C4.23834 1.44 1.43994 4.2384 1.43994 7.68V16.32C1.43994 19.7616 4.23834 22.56 7.67994 22.56H16.3199C19.7615 22.56 22.5599 19.7616 22.5599 16.32V7.68C22.5599 4.2384 19.7615 1.44 16.3199 1.44H7.67994ZM17.7599 5.28C18.2879 5.28 18.7199 5.712 18.7199 6.24C18.7199 6.768 18.2879 7.2 17.7599 7.2C17.2319 7.2 16.7999 6.768 16.7999 6.24C16.7999 5.712 17.2319 5.28 17.7599 5.28ZM11.9999 6.72C14.9135 6.72 17.2799 9.0864 17.2799 12C17.2799 14.9136 14.9135 17.28 11.9999 17.28C9.08634 17.28 6.71994 14.9136 6.71994 12C6.71994 9.0864 9.08634 6.72 11.9999 6.72ZM11.9999 7.68C9.61914 7.68 7.67994 9.6192 7.67994 12C7.67994 14.3808 9.61914 16.32 11.9999 16.32C14.3807 16.32 16.3199 14.3808 16.3199 12C16.3199 9.6192 14.3807 7.68 11.9999 7.68Z" fill="#6972B5"/>
</g>
</svg>
